<svg xmlns="http://www.w3.org/2000/svg" width="22.405" height="25" viewBox="0 0 22.405 25">
  <g id="edd-note" transform="translate(-26.57)">
    <g id="Group_94" data-name="Group 94" transform="translate(26.57)">
      <g id="Group_93" data-name="Group 93">
        <path id="Path_60" data-name="Path 60" d="M118.471,200.977a.977.977,0,0,0-.977-.977H107.436a.977.977,0,0,0,0,1.953h10.059A.977.977,0,0,0,118.471,200.977Z" transform="translate(-102.558 -190.234)" fill="#fcc020"/>
        <path id="Path_61" data-name="Path 61" d="M107.436,280a.977.977,0,0,0,0,1.953h6.109a.977.977,0,0,0,0-1.953Z" transform="translate(-102.558 -266.328)" fill="#fcc020"/>
        <path id="Path_62" data-name="Path 62" d="M33.742,23.047H30.476a1.955,1.955,0,0,1-1.953-1.953V3.906a1.955,1.955,0,0,1,1.953-1.953H42.483a1.955,1.955,0,0,1,1.953,1.953V9.912a.977.977,0,0,0,1.953,0V3.906A3.911,3.911,0,0,0,42.483,0H30.476A3.911,3.911,0,0,0,26.57,3.906V21.094A3.911,3.911,0,0,0,30.476,25h3.266a.977.977,0,0,0,0-1.953Z" transform="translate(-26.57)" fill="#fcc020"/>
        <path id="Path_63" data-name="Path 63" d="M254.415,272.881a2.933,2.933,0,0,0-4.142,0l-5.361,5.35a.977.977,0,0,0-.245.407l-1.168,3.844a.976.976,0,0,0,1.2,1.225l3.942-1.092a.976.976,0,0,0,.429-.25l5.35-5.34A2.933,2.933,0,0,0,254.415,272.881Zm-6.548,7.92-1.983.549.58-1.911,3.618-3.61,1.381,1.381Zm5.168-5.158-.189.189-1.381-1.381.189-.188a.977.977,0,0,1,1.382,1.38Z" transform="translate(-232.867 -258.742)" fill="#fcc020"/>
        <path id="Path_64" data-name="Path 64" d="M117.494,120H107.436a.977.977,0,0,0,0,1.953h10.059a.977.977,0,0,0,0-1.953Z" transform="translate(-102.558 -114.141)" fill="#fcc020"/>
      </g>
    </g>
  </g>
</svg>
