<?xml version="1.0" encoding="utf-8"?>
<!-- Generator: Adobe Illustrator 24.0.1, SVG Export Plug-In . SVG Version: 6.00 Build 0)  -->
<svg version="1.1" id="Capa_1" xmlns="http://www.w3.org/2000/svg" xmlns:xlink="http://www.w3.org/1999/xlink" x="0px" y="0px"
	 viewBox="0 0 512 512" style="enable-background:new 0 0 512 512;" xml:space="preserve">
<style type="text/css">
	.st0{fill:#FCC020;}
</style>
<path class="st0" d="M391,332c-24.1,0-46.1,9.6-62.3,25.1l-96.3-59.6c5.5-12.7,8.5-26.7,8.5-41.5s-3.1-28.7-8.5-41.5l96.3-59.6
	c16.2,15.5,38.1,25.1,62.3,25.1c49.6,0,90-40.4,90-90S440.6,0,391,0s-90,40.4-90,90c0,14.7,3.5,28.5,9.8,40.7l-94,58.2
	c-19.3-23.2-48.3-38-80.8-38c-57.9,0-105,47.1-105,105s47.1,105,105,105c32.4,0,61.5-14.8,80.8-38l94,58.2
	c-6.2,12.2-9.8,26.1-9.8,40.7c0,49.6,40.4,90,90,90s90-40.4,90-90S440.6,332,391,332z"/>
</svg>
