<svg xmlns="http://www.w3.org/2000/svg" width="32.194" height="27.667" viewBox="0 0 32.194 27.667">
  <g id="shopping-cart" transform="translate(0 -36)">
    <path id="Path_12" data-name="Path 12" d="M31.69,40.362a2.252,2.252,0,0,0-1.761-.841H5.391l-.219-1.57A2.273,2.273,0,0,0,2.93,36H1.006a1.006,1.006,0,0,0,0,2.012H2.93a.253.253,0,0,1,.249.217l.339,2.429s0,.006,0,.008L5.484,54.751v0l.41,2.937a2.273,2.273,0,0,0,2.242,1.951H9.228a3.018,3.018,0,1,0,5.69,0h5.376a3.018,3.018,0,1,0,5.69,0H28.17a1.006,1.006,0,1,0,0-2.012H8.137a.253.253,0,0,1-.249-.217l-.251-1.8H27.45a2.277,2.277,0,0,0,2.214-1.79L32.143,42.26a2.253,2.253,0,0,0-.453-1.9Zm-1.528,2.375L28.15,52.8a1.006,1.006,0,0,1-1.973-.395l2.012-10.061a1.006,1.006,0,1,1,1.973.395Z" fill="#fff"/>
  </g>
</svg>
