<?xml version="1.0" encoding="utf-8"?>
<!-- Generator: Adobe Illustrator 24.0.1, SVG Export Plug-In . SVG Version: 6.00 Build 0)  -->
<svg version="1.1" id="Capa_1" xmlns="http://www.w3.org/2000/svg" xmlns:xlink="http://www.w3.org/1999/xlink" x="0px" y="0px"
	 viewBox="0 0 414.8 414.8" style="enable-background:new 0 0 414.8 414.8;" xml:space="preserve">
<style type="text/css">
	.st0{fill:#FCC020;}
</style>
<g>
	<path class="st0" d="M315.9,150.6c-15.3,0-27.8,12.4-27.8,27.8v18.5c0,15.4,12.5,27.9,27.8,27.9h64.9v-74.2H315.9z M334.4,201.6
		c-7.7,0-13.9-6.3-13.9-13.9s6.2-13.9,13.9-13.9c7.7,0,13.9,6.2,13.9,13.9S342.1,201.6,334.4,201.6z M360.4,51H47.6
		C21.3,51,0,72.3,0,98.6v231.2c0,18.8,15.2,34,34,34h312.8c18.8,0,34-15.2,34-34v-91.5h-64.9c-22.8,0-41.4-18.6-41.4-41.4v-18.6
		c0-22.8,18.6-41.4,41.4-41.4h64.9v-24.8c0-15-12.2-27.2-27.2-27.2H40.8c-3.7,0-6.8-3.1-6.8-6.8c0-3.7,3.1-6.8,6.8-6.8h312.8
		c22.5,0,40.8,18.3,40.8,40.8v209.1c12.3-8.6,20.4-22.9,20.4-39.1V105.4C414.8,75.4,390.4,51,360.4,51z M315.9,150.6
		c-15.3,0-27.8,12.4-27.8,27.8v18.5c0,15.4,12.5,27.9,27.8,27.9h64.9v-74.2H315.9z M334.4,201.6c-7.7,0-13.9-6.3-13.9-13.9
		s6.2-13.9,13.9-13.9c7.7,0,13.9,6.2,13.9,13.9S342.1,201.6,334.4,201.6z M315.9,150.6c-15.3,0-27.8,12.4-27.8,27.8v18.5
		c0,15.4,12.5,27.9,27.8,27.9h64.9v-74.2H315.9z M334.4,201.6c-7.7,0-13.9-6.3-13.9-13.9s6.2-13.9,13.9-13.9
		c7.7,0,13.9,6.2,13.9,13.9S342.1,201.6,334.4,201.6z"/>
</g>
</svg>
