<svg id="track-location" xmlns="http://www.w3.org/2000/svg" width="17.084" height="17.084" viewBox="0 0 17.084 17.084">
  <path id="Path_13" data-name="Path 13" d="M109.518,111.723a2.2,2.2,0,1,0-2.2-2.2A2.207,2.207,0,0,0,109.518,111.723Zm0-3.538a1.333,1.333,0,1,1-1.333,1.333A1.335,1.335,0,0,1,109.518,108.185Z" transform="translate(-100.976 -100.976)" fill="#5c6978"/>
  <path id="Path_14" data-name="Path 14" d="M16.712,8.17H15.237A6.714,6.714,0,0,0,8.914,1.847V.372a.372.372,0,0,0-.745,0V2.209a.372.372,0,0,0,.372.372,5.956,5.956,0,1,1-2.57.581.372.372,0,1,0-.321-.672,6.7,6.7,0,0,0-3.8,5.679H.372a.372.372,0,1,0,0,.745H1.848A6.714,6.714,0,0,0,8.17,15.236v1.475a.372.372,0,0,0,.745,0V15.236a6.714,6.714,0,0,0,6.322-6.322h1.475a.372.372,0,1,0,0-.745Z" fill="#5c6978"/>
</svg>
